<svg xmlns="http://www.w3.org/2000/svg" xmlns:xlink="http://www.w3.org/1999/xlink" preserveAspectRatio="xMidYMid" width="9" height="16" viewBox="0 0 9 16">
  <defs>
    <style>
      .cls-1 {
        fill: #3d4677;
        fill-rule: evenodd;
      }
    </style>
  </defs>
  <path d="M8.661,-0.001 L6.502,-0.005 C4.077,-0.005 2.510,1.543 2.510,3.934 L2.510,5.750 L0.339,5.750 C0.152,5.750 -0.000,5.895 -0.000,6.078 L-0.000,8.706 C-0.000,8.887 0.152,9.034 0.339,9.034 L2.510,9.034 L2.510,15.670 C2.510,15.850 2.662,15.996 2.849,15.996 L5.681,15.996 C5.869,15.996 6.020,15.850 6.020,15.670 L6.020,9.034 L8.558,9.034 C8.745,9.034 8.897,8.887 8.897,8.706 L8.898,6.078 C8.898,5.990 8.862,5.906 8.799,5.844 C8.735,5.784 8.649,5.750 8.559,5.750 L6.020,5.750 L6.020,4.211 C6.020,3.470 6.204,3.095 7.206,3.095 L8.660,3.094 C8.848,3.094 9.000,2.948 9.000,2.769 L9.000,0.326 C9.000,0.145 8.848,-0.001 8.661,-0.001 Z" class="cls-1"/>
</svg>
