<svg xmlns="http://www.w3.org/2000/svg" xmlns:xlink="http://www.w3.org/1999/xlink" preserveAspectRatio="xMidYMid" width="16" height="16" viewBox="0 0 16 16">
  <defs>
    <style>
      .cls-1 {
        fill: #3d4677;
        fill-rule: evenodd;
      }
    </style>
  </defs>
  <path d="M14.928,4.081 C14.212,2.823 13.242,1.827 12.016,1.095 C10.790,0.363 9.451,-0.005 8.000,-0.005 C6.548,-0.005 5.209,0.363 3.984,1.095 C2.758,1.827 1.787,2.823 1.072,4.081 C0.356,5.337 -0.002,6.708 -0.002,8.198 C-0.002,9.985 0.507,11.592 1.525,13.018 C2.542,14.447 3.857,15.433 5.468,15.983 C5.656,16.017 5.794,15.993 5.885,15.908 C5.975,15.823 6.020,15.716 6.020,15.588 C6.020,15.565 6.018,15.374 6.015,15.010 C6.011,14.647 6.010,14.331 6.010,14.060 L5.770,14.103 C5.617,14.132 5.425,14.143 5.192,14.139 C4.959,14.137 4.718,14.112 4.468,14.065 C4.218,14.019 3.985,13.913 3.770,13.745 C3.555,13.578 3.402,13.359 3.311,13.088 L3.207,12.842 C3.138,12.679 3.029,12.498 2.879,12.298 C2.730,12.100 2.579,11.964 2.426,11.892 L2.353,11.837 C2.304,11.804 2.259,11.762 2.217,11.710 C2.176,11.661 2.145,11.612 2.124,11.560 C2.103,11.512 2.120,11.472 2.176,11.438 C2.231,11.405 2.332,11.390 2.478,11.390 L2.687,11.421 C2.825,11.451 2.997,11.536 3.202,11.680 C3.407,11.822 3.575,12.007 3.707,12.233 C3.867,12.526 4.060,12.747 4.286,12.902 C4.511,13.054 4.739,13.132 4.968,13.132 C5.197,13.132 5.395,13.113 5.562,13.077 C5.728,13.042 5.884,12.988 6.031,12.915 C6.093,12.441 6.263,12.075 6.541,11.817 C6.145,11.776 5.789,11.709 5.473,11.625 C5.157,11.539 4.831,11.399 4.494,11.210 C4.157,11.016 3.877,10.778 3.655,10.493 C3.433,10.209 3.250,9.835 3.108,9.370 C2.966,8.907 2.895,8.374 2.895,7.770 C2.895,6.907 3.169,6.176 3.718,5.569 C3.461,4.920 3.485,4.195 3.790,3.390 C3.992,3.327 4.291,3.374 4.686,3.535 C5.083,3.696 5.372,3.832 5.557,3.946 C5.741,4.061 5.888,4.155 5.999,4.234 C6.645,4.050 7.312,3.956 8.000,3.956 C8.687,3.956 9.354,4.050 10.000,4.234 L10.396,3.980 C10.667,3.808 10.986,3.650 11.355,3.508 C11.723,3.367 12.004,3.327 12.199,3.390 C12.511,4.195 12.539,4.922 12.282,5.569 C12.830,6.176 13.105,6.907 13.105,7.770 C13.105,8.375 13.033,8.910 12.891,9.377 C12.749,9.843 12.565,10.217 12.339,10.499 C12.114,10.778 11.832,11.016 11.495,11.210 C11.158,11.399 10.832,11.539 10.516,11.625 C10.200,11.710 9.844,11.776 9.448,11.817 C9.810,12.137 9.989,12.643 9.989,13.333 L9.989,15.588 C9.989,15.716 10.033,15.822 10.120,15.908 C10.207,15.993 10.344,16.017 10.531,15.983 C12.143,15.433 13.457,14.447 14.475,13.018 C15.492,11.591 16.001,9.985 16.001,8.196 C16.001,6.708 15.643,5.337 14.928,4.081 Z" class="cls-1"/>
</svg>
