<svg xmlns="http://www.w3.org/2000/svg" xmlns:xlink="http://www.w3.org/1999/xlink" preserveAspectRatio="xMidYMid" width="17" height="16" viewBox="0 0 17 16">
  <defs>
    <style>
      .cls-1 {
        fill: #3d4677;
        fill-rule: evenodd;
      }
    </style>
  </defs>
  <path d="M17.000,9.806 L17.000,15.996 L13.356,15.996 L13.356,10.220 C13.356,8.768 12.829,7.780 11.510,7.780 C10.503,7.780 9.904,8.447 9.641,9.094 C9.545,9.324 9.520,9.645 9.520,9.966 L9.520,15.996 L5.875,15.996 C5.875,15.996 5.924,6.213 5.875,5.200 L9.520,5.200 L9.520,6.732 C9.512,6.742 9.503,6.754 9.496,6.766 L9.520,6.766 L9.520,6.732 C10.004,5.997 10.869,4.947 12.804,4.947 C15.202,4.947 17.000,6.489 17.000,9.806 ZM2.062,-0.005 C0.815,-0.005 -0.000,0.802 -0.000,1.862 C-0.000,2.897 0.792,3.728 2.014,3.728 L2.038,3.728 C3.309,3.728 4.100,2.898 4.100,1.862 C4.076,0.802 3.309,-0.005 2.062,-0.005 ZM0.217,15.996 L3.860,15.996 L3.860,5.200 L0.217,5.200 L0.217,15.996 Z" class="cls-1"/>
</svg>
