<svg xmlns="http://www.w3.org/2000/svg" xmlns:xlink="http://www.w3.org/1999/xlink" preserveAspectRatio="xMidYMid" width="20" height="20" viewBox="0 0 20 20">
  <defs>
    <style>
      .cls-1 {
        fill: #7a69e6;
        fill-rule: evenodd;
      }
    </style>
  </defs>
  <path d="M17.045,17.072 C15.095,19.017 12.523,19.999 9.969,19.999 C7.414,19.999 4.843,19.017 2.892,17.072 C-1.008,13.182 -1.008,6.830 2.892,2.940 C6.206,-0.365 11.298,-0.950 15.267,1.528 C15.595,1.735 15.699,2.165 15.492,2.493 C15.285,2.820 14.853,2.923 14.525,2.716 C11.108,0.599 6.741,1.098 3.876,3.938 C0.528,7.278 0.528,12.734 3.876,16.074 C7.224,19.413 12.696,19.413 16.044,16.074 C18.909,13.217 19.410,8.844 17.252,5.436 C17.045,5.109 17.149,4.679 17.477,4.472 C17.805,4.265 18.236,4.369 18.443,4.696 C20.946,8.655 20.376,13.750 17.045,17.072 ZM9.157,13.612 C9.019,13.768 8.830,13.853 8.640,13.870 C8.622,13.870 8.622,13.870 8.605,13.870 C8.415,13.870 8.243,13.802 8.105,13.664 L4.843,10.411 C4.566,10.135 4.566,9.688 4.843,9.412 C5.119,9.137 5.567,9.137 5.844,9.412 L8.553,12.115 L16.234,2.940 C16.493,2.647 16.942,2.613 17.235,2.854 C17.528,3.112 17.563,3.560 17.321,3.852 L9.157,13.612 Z" class="cls-1"/>
</svg>
