<svg xmlns="http://www.w3.org/2000/svg" xmlns:xlink="http://www.w3.org/1999/xlink" preserveAspectRatio="xMidYMid" width="17" height="14" viewBox="0 0 17 14">
  <defs>
    <style>
      .cls-1 {
        fill: #3d4677;
        fill-rule: evenodd;
      }
    </style>
  </defs>
  <path d="M16.531,0.255 C15.856,0.660 15.110,0.954 14.315,1.113 C13.679,0.425 12.774,-0.004 11.770,-0.004 C9.843,-0.004 8.282,1.580 8.282,3.531 C8.282,3.808 8.313,4.077 8.372,4.336 C5.474,4.188 2.904,2.782 1.184,0.643 C0.884,1.164 0.712,1.771 0.712,2.420 C0.712,3.647 1.329,4.728 2.263,5.360 C1.692,5.342 1.154,5.183 0.684,4.918 L0.684,4.962 C0.684,6.674 1.886,8.103 3.481,8.429 C3.189,8.510 2.881,8.553 2.563,8.553 C2.337,8.553 2.119,8.530 1.906,8.490 C2.350,9.894 3.637,10.914 5.163,10.944 C3.970,11.892 2.465,12.458 0.832,12.458 C0.550,12.458 0.273,12.439 -0.000,12.408 C1.544,13.412 3.376,13.997 5.346,13.997 C11.761,13.997 15.269,8.609 15.269,3.938 L15.257,3.481 C15.941,2.985 16.533,2.362 17.000,1.653 C16.374,1.934 15.703,2.125 14.997,2.209 C15.718,1.771 16.270,1.079 16.531,0.255 Z" class="cls-1"/>
</svg>
